<?xml version='1.0' encoding='utf-8'?>
<svg xmlns="http://www.w3.org/2000/svg" version="1.1" width="600px" height="976px" viewBox="0 0 600 976"> <g id="layer1"> <g style="fill:rgb(255,198,150); fill-opacity:1.0; stroke-linejoin: miter"> <path d="M388.85684,45.06099Q334.65103,42.8002,290.58878,49.12201Q276.22125,51.174625,257.9522,54.98641L138.90248,80.78467Q50.033356,101.381226,17.331043,134.00389Q-5.18493,154.16563,-20.592855,182.3037L12.559692,379.71674Q26.08918,338.78067,113.13043,323.68713Q149.90335,316.57047,215.30757,310.8448Q223.28867,309.3291,461.15198,293.1406Q513.01416,289.12555,544.9717,285.31564Q618.67554,276.90988,633.5447,262.36697Q642.4573,254.8896,638.27234,242.5661L610.7628,195.28516Q606.5492,189.63576,593.37695,131.34479Q589.1981,118.90361,582.631,113.29637Q574.7223,106.244446,558.4248,106.216606Q551.0122,105.07833,503.47916,113.43797Q495.98196,114.3607,491.65854,113.1089Q487.79395,112.21796,487.10794,106.58357Q490.56656,80.899414,487.97632,76.32833Q485.7464,68.036194,477.22772,62.3301Q455.87418,48.429413,388.96964,45.066017"/> </g> <g style="fill:rgb(255,255,255); fill-opacity:1.0; stroke-linejoin: miter"> <path d="M-15.638641,149.20413L-92.17065,179.01277L-31.861908,443.79404L37.293396,419.31256L-15.553146,149.64009"/> </g> <g style="fill:rgb(0,0,0); fill-opacity:1.0; stroke-linejoin: miter"> <path d="M-843.60956,94.699844L-850.08527,471.29767L-623.36993,563.8984L6.140625,477.87708L-71.065,148.2273L-599.4891,222.44322L-842.58844,95.23507"/> </g> <g style="fill:rgb(194,174,147); fill-opacity:1.0; stroke-linejoin: miter"> <path d="M285.27548,-140.1991Q256.4439,-140.43982,247.97731,-133.73749Q240.63377,-128.10617,240.51021,-116.85052L192.37247,-73.769196L177.7916,-65.698784Q175.05518,-63.621025,173.54901,-59.83973Q169.88297,-50.607155,186.6446,-32.13185Q282.14694,52.41768,283.0741,58.590637Q300.35938,80.27655,296.75534,91.40823Q295.2314,98.08249,284.97897,104.17732Q204.19093,136.23412,178.7059,160.89601Q141.79752,192.78139,122.567,240.40749Q101.5119,292.00714,90.586105,381.98877Q83.45889,420.94348,69.942,682.87164Q66.484406,727.1204,59.196903,757.5513Q49.159245,797.89,33.068615,812.9659Q24.641476,824.5078,-11.745941,830.775Q-17.769173,833.4057,-22.216106,839.4708Q-31.405462,850.0033,-32.91141,890.10565Q589.3568,915.52606,650.6396,914.69403Q702.8217,915.54974,716.832,913.02997Q732.939,911.53326,733.13635,901.55597Q687.8783,828.3315,672.47473,717.91376Q662.20435,651.7581,657.3936,574.2818L649.77124,357.81366Q646.1618,312.43805,634.5771,278.18854Q619.8263,234.64052,587.5595,204.86732Q576.2716,188.98845,453.6146,112.66754Q431.29053,96.02577,425.4908,80.5788Q419.21637,64.044525,434.5727,41.75444Q436.33142,35.30092,495.08344,-24.598145Q505.66083,-36.891754,510.10748,-45.710625Q520.2766,-63.57914,508.33923,-78.75662Q458.4412,-126.20939,285.38852,-140.19751"/> </g> <g style="fill:rgb(255,198,150); fill-opacity:1.0; stroke-linejoin: miter"> <path d="M471.56122,698.75037Q454.01154,698.5062,428.9997,708.2249L332.17438,753.1298Q308.65216,763.4153,289.1678,769.0514Q272.7395,773.7412,254.96312,776.3154Q172.71373,785.05634,163.82024,787.80206Q134.47798,793.34937,107.06238,803.3771Q41.8096,827.25616,-65.28163,894.893Q-99.34683,916.4334,-128.8154,936.418L-128.68546,1076.712L-127.34927,1076.7662Q-47.226257,1077.6846,-18.278374,1071.7343Q-7.372467,1069.6998,1.6203308,1066.0243Q38.280792,1047.6217,48.58284,1044.5574Q63.8992,1038.9558,86.266174,1033.9669Q104.59772,1029.9055,134.59193,1025.1177L258.5578,1007.1058Q286.56415,1002.82324,300.55627,999.77295Q314.43225,996.86145,324.47003,992.9552Q329.29456,991.86584,347.83215,979.3609Q355.54456,975.9845,365.26624,974.48914Q375.1485,972.85345,390.12378,971.5541Q469.73108,965.5617,480.7815,964.1494Q508.2624,961.32874,526.29895,957.8996Q555.17413,952.77234,572.1261,942.096Q582.0394,935.70355,587.5266,928.00494L601.2662,902.63367Q545.5522,905.39856,418.36682,884.55035Q332.56342,869.1942,325.49432,853.4049Q322.1546,843.76514,342.9953,832.53107Q352.77966,827.10004,368.18793,820.6904Q451.99,788.5882,457.49597,784.58887Q486.25336,770.53674,499.96545,756.231Q518.34894,737.3306,509.99316,718.1375Q500.02826,699.4405,472.698,698.7593"/> </g> <g style="fill:rgb(255,255,255); fill-opacity:1.0; stroke-linejoin: miter"> <path d="M-203.26242,868.6651L-196.54343,1169.9277L-59.19432,1116.5708L-73.658325,871.9943L-203.11697,868.6688"/> </g> <g style="fill:rgb(0,0,0); fill-opacity:1.0; stroke-linejoin: miter"> <path d="M-872.8117,809.86316L-856.1068,1272.1385L-155.72168,1280.1323L-165.32385,850.4651L-165.36829,849.5609L-871.6831,809.9265"/> </g> <g style="fill:rgb(135,78,38); fill-opacity:0.09803922; stroke-linejoin: miter"> <path d="M284.4421,-101.52196Q287.63986,-43.228416,294.824,-33.96311Q296.61777,-31.6315,298.9206,-31.6315Q301.22183,-31.6315,304.03143,-33.95983Q308.89545,-37.600616,319.56235,-54.14813L284.47333,-101.48499L284.44495,-101.52196 Z M343.14752,-117.22538Q339.67047,-43.068634,345.31888,-29.026047Q347.14505,-24.336357,350.2904,-24.336357Q351.81195,-24.336357,353.64215,-25.433746Q358.46457,-27.962173,369.72784,-43.52912L343.16983,-117.17712L343.15094,-117.22538 Z M417.62305,-94.09556Q399.85388,-31.606514,403.94235,-17.616966Q405.59903,-11.811451,411.053,-11.811451Q412.29242,-11.811451,413.7279,-12.111252Q420.248,-13.101265,437.75473,-24.389656L417.64685,-94.013214L417.62305,-94.09556 Z M218.47108,-60.0097L218.47108,-60.0097Q242.40671,-11.392498,251.9079,-7.9260254Q252.74559,-7.627171,253.52847,-7.627171Q257.20886,-7.627171,259.67816,-14.231827Q262.50757,-21.192204,265.18927,-42.661762L218.54466,-59.983547L218.47327,-60.0097 Z M373.08484,81.68747Q352.32468,107.38107,348.34183,118.90797Q343.2568,132.29286,351.06335,139.55333Q360.22855,148.2414,391.14545,151.51791Q403.9926,152.78247,416.1846,152.78247Q421.34067,152.78247,426.37958,152.5563Q443.06027,151.6836,443.39697,148.99487Q443.3978,146.48871,427.9476,142.23688Q416.0149,138.79901,375.66605,130.24847L373.08563,81.70246L373.08484,81.68747 Z M310.10416,84.468994Q279.71072,122.26872,252.79474,146.8514Q241.7789,156.92792,228.2033,167.1731Q216.87373,175.86717,191.3244,193.01126Q188.25955,195.17746,188.00809,195.76433Q187.8934,196.02435,188.30261,196.02435Q190.23318,196.02435,203.82423,190.23706Q218.24173,184.14351,259.3039,165.50201L310.10385,84.47562L310.10727,84.468994 Z M319.56445,116.313286Q222.05452,238.12917,225.7199,248.35828Q226.0859,249.62154,227.76604,249.62154Q231.57275,249.62154,242.12558,243.13657Q248.21112,239.42572,258.122,232.50833Q301.99988,200.96234,303.61212,200.21243Q315.30536,192.34866,323.4367,188.49945Q332.01886,184.41124,337.47787,184.41124Q338.09134,184.41124,338.66537,184.46286Q343.53607,184.5715,348.1147,190.4658L319.61954,116.45635L319.56445,116.313286 Z M396.9282,836.6493Q390.2433,836.6493,383.82874,837.63947Q354.72147,842.70557,349.12115,856.11566Q345.57135,866.9413,372.12347,876.5162Q403.42398,887.6547,458.76608,894.90283Q492.8121,899.4666,535.38416,899.4666Q543.9105,899.4666,552.7789,899.28357L552.8004,899.2804L513.3512,885.199Q462.32336,853.3344,436.47223,844.4081Q415.64096,836.6493,396.9282,836.6493 Z"/> </g> <g style="fill:rgb(117,71,17); fill-opacity:0.05882353; stroke-linejoin: miter"> <path d="M471.6348,-102.298485L465.79892,-100.225204Q426.2704,36.50229,411.72617,71.572174Q409.17725,80.4659,409.8736,83.44766Q410.36853,88.711685,414.73788,94.167496Q460.537,139.82057,478.57996,172.84581Q497.4291,204.80254,512.36676,262.45752Q526.17004,316.18768,537.76636,394.92657Q537.767,394.6074,537.80536,394.6074Q538.96826,394.6074,574.8019,688.4425Q584.4934,760.6909,594.581,816.34784Q604.80176,873.0789,616.20483,914.278L616.211,914.278Q635.9281,914.7204,646.1916,914.7204Q648.6973,914.7204,650.6396,914.69403Q663.86816,914.91095,674.6436,914.91095Q706.3734,914.91095,716.832,913.02997Q732.939,911.53326,733.13635,901.55597Q687.8783,828.3315,672.47473,717.91376Q662.20435,651.7581,657.3936,574.2818L649.77124,357.81366Q646.1618,312.43805,634.5771,278.18854Q632.3552,271.62912,629.736,265.3822L629.7297,265.3822Q631.96796,263.9091,633.5447,262.36697Q642.4573,254.8896,638.27234,242.5661L610.7628,195.28516Q606.5492,189.63576,593.37695,131.34479Q589.1981,118.90361,582.631,113.29637Q574.7223,106.244446,558.4248,106.216606Q557.53644,106.08019,556.07184,106.08019Q545.3156,106.08019,503.47916,113.43797Q500.29782,113.82952,497.688,113.82952Q494.14737,113.82952,491.65854,113.1089Q487.79395,112.21796,487.10794,106.58357Q490.56656,80.899414,487.97632,76.32833Q485.7464,68.036194,477.22772,62.3301Q463.34985,53.295906,430.232,48.712482L430.2277,48.712482Q432.12555,45.306545,434.5727,41.75444Q436.33142,35.30092,495.08344,-24.598145Q505.66083,-36.891754,510.10748,-45.710625Q520.2766,-63.57914,508.33923,-78.75662Q494.6345,-91.789764,471.63953,-102.298485 Z"/> </g> <g> <g style="fill:rgb(255,235,24); fill-opacity:1.0; stroke-linejoin: miter"> <path d="M385.66632,324.0302Q383.13275,324.03632,380.5929,324.1093Q329.18555,325.58603,298.51782,358.98492Q268.06628,392.15497,269.62607,446.45547L269.72202,449.79355L237.23071,450.7269L238.22156,485.22095L270.71286,484.28757L271.5822,514.55347L239.09097,515.4868L240.08185,549.9809L272.57306,549.0475Q273.93475,596.44916,306.6852,627.8037Q337.85577,657.6484,386.37524,657.5317Q388.47845,657.5266,390.6142,657.46533Q404.1892,657.0755,417.93576,654.8986Q431.45966,652.7285,443.82614,649.0322L438.59427,614.2144Q427.1307,618.33026,414.72586,620.69104Q402.31467,622.8292,389.62967,623.19366Q388.4198,623.22845,387.2276,623.2313Q356.18378,623.30597,337.11884,601.76135Q317.5507,579.6054,317.55862,548.8689L317.97174,547.7435L425.9049,544.6431L424.91406,510.14896L315.42307,513.2941L314.55365,483.02832L424.04465,479.88318L423.0538,445.389L313.5628,448.53418L313.45413,444.7511Q312.35458,406.47372,330.83487,383.002Q349.09256,359.53683,381.58374,358.6035Q383.42517,358.55057,385.27283,358.54614Q395.92987,358.5205,406.795,360.1065Q419.3149,361.7514,431.43448,364.96686L434.64642,329.46124Q419.86276,326.54492,406.68152,325.14175Q396.22968,324.00482,385.66632,324.0302 Z"/> </g> </g> </g> </svg>