<?xml version='1.0' encoding='utf-8'?>
<svg xmlns="http://www.w3.org/2000/svg" version="1.1" width="720px" height="1358px" viewBox="0 0 720 1358"> <g id="layer1"> <g style="fill:rgb(244,67,54); fill-opacity:1.0; stroke-linejoin: miter"> <path d="M443.54758,934.70154L443.91345,934.77466C443.90982,934.7929,443.90503,934.8085,443.89984,934.8214L443.89984,934.8214L443.5472,934.70276L443.53564,934.70276C443.53564,934.7023,443.5359,934.702,443.536,934.70154 Z M394.90805,888.9268C398.83664,888.9268,405.52963,889.79443,407.51523,890.65485L407.5215,890.65765C407.73276,890.7447,407.95456,890.8369,408.27258,890.96924C408.6782,891.1379,409.22333,891.3647,409.72345,891.5706L409.7233,891.5706C410.1477,891.74554,410.68314,891.9642,411.07867,892.1223L411.07883,892.1223C413.0432,892.9416,415.06662,894.13605,418.73642,896.6798L418.73657,896.6798C422.91925,899.59204,429.09824,908.7087,430.4981,914.0201L430.49826,914.0201C430.7535,915.08276,431.25488,916.795,431.6353,917.8939L431.6351,917.8939C432.0705,919.32776,432.1993,921.15295,432.07425,925.7005L432.07413,925.7018C431.94922,930.8227,431.7429,932.07684,430.75604,935.03754L430.7559,935.03754C428.1433,942.79224,424.1293,948.7042,418.17328,953.4194L418.17178,953.42053C416.57806,954.69525,415.19693,955.6596,414.89532,955.764L414.88403,955.764C414.86414,955.76605,414.84628,955.7691,414.82904,955.77234L414.8274,955.77246C414.4667,955.8426,413.40338,956.4092,412.40894,956.98285L412.4049,956.9852C411.30597,957.6364,409.3247,958.5035,407.9745,958.9129L407.97424,958.9129C406.5859,959.29205,405.10397,959.8402,404.6532,960.06555L404.65005,960.0674C403.55817,960.6264,399.92563,961.0207,396.28757,961.0207C394.69794,961.0207,393.13232,960.9448,391.83282,960.78094L391.82904,960.78046L391.81985,960.7793C389.62006,960.5393,387.76007,960.1951,387.41046,960.0521L387.40353,960.0521C387.10522,959.82996,385.99103,959.4423,384.98782,959.1613L384.9877,959.1613C382.98654,958.601,377.5545,956.00745,376.95807,955.42993L376.95053,955.42993C376.92523,955.3794,376.89606,955.3413,376.87073,955.31195L376.87088,955.31195C376.64517,955.047,375.82626,954.5477,375.078,954.13635L375.06128,954.12787C373.4324,953.3331,366.8395,946.625,365.86765,944.80255L365.86765,944.8024C365.53223,944.17365,364.87045,942.8917,364.40897,941.9687L364.4057,941.96216C361.2612,935.9629,360.39484,932.2212,360.3946,924.58545C360.43625,919.33057,360.97937,915.5474,362.03693,913.0255L362.0387,913.02136C363.32837,909.837,364.43137,907.4356,364.6703,907.0921L364.65945,907.0921L364.67166,907.08704C364.68085,907.07806,364.68137,907.07764,364.69193,907.06573C364.86655,906.8756,365.21918,906.2468,365.5331,905.6584L365.53598,905.65295C367.13013,902.5463,373.92694,895.7497,377.0331,894.15576L377.0385,894.1529C377.62405,893.84064,378.24985,893.4897,378.4432,893.31415L378.44305,893.31415C378.45023,893.30774,378.45264,893.3057,378.45502,893.3034L378.4539,893.3034C378.7182,893.096,381.01743,892.0615,384.38727,890.6229L384.38513,890.6229C385.0611,890.3842,387.0021,889.9279,388.7023,889.6791C389.7581,889.5247,390.64685,889.3892,391.53723,889.2541L391.53708,889.2541C392.07202,889.1729,392.5014,889.1077,392.77356,889.06793L392.77417,889.06793C392.8709,889.05365,392.7908,889.06525,392.88098,889.0524L392.89294,889.05054C393.37454,888.96686,394.06287,888.9268,394.90805,888.9268 Z M390.3189,867.13434C390.14566,867.13434,390.00854,867.212,389.91278,867.2951L389.91257,867.2951C389.64932,867.5241,389.51648,867.9504,389.51648,868.3546C389.51648,868.59906,389.46,868.76654,389.4244,868.8356L389.41333,868.8356C389.2888,868.8845,389.2168,868.97925,389.20523,868.9932C388.91965,869.3375,388.37363,870.8123,387.86243,872.41864L387.85956,872.42847C387.3382,874.23315,386.80792,875.6601,386.6563,875.86646L386.64612,875.86646C386.63556,875.87573,386.6256,875.8852,386.61667,875.894L386.61615,875.89453C386.31952,876.18756,385.99265,877.0812,385.76883,877.86426L385.76746,877.8693C385.45645,879.01776,385.213,879.1619,385.09723,879.1619C384.8815,879.1619,384.44907,878.8932,383.61884,878.00073L383.6167,877.9983C382.21002,876.51135,376.48172,871.32043,375.78445,870.9566L375.78458,870.9566C375.76987,870.9489,375.67575,870.89667,375.56177,870.89667C375.24387,870.89667,375.15152,871.2442,375.16006,871.2442L375.1637,871.2442C375.05298,871.7014,374.8672,873.9605,374.7182,876.56836L374.7182,876.5686C374.54837,879.5815,374.21167,882.36066,373.96393,882.8562L373.95175,882.8831L373.65433,883.6132L370.89975,882.1072L370.8977,882.10614L370.8894,882.1014C366.81427,879.9045,363.36868,878.14856,362.8105,878.0215L362.80988,878.0215C362.8017,878.0196,362.79272,878.0177,362.78317,878.0158L362.77725,878.0158L362.6902,878.00574L362.6795,878.00574L362.4561,878.07745C362.2992,878.18945,362.27966,878.3832,362.2803,878.3832L362.2803,878.3832C362.20874,878.8277,362.4328,881.0348,362.8074,883.5447L362.80728,883.5447C362.9795,884.71533,363.12997,885.7178,363.26736,886.6339C363.35037,887.187,363.44943,887.84814,363.49722,888.17395L363.49722,888.17426C363.52087,888.33466,363.5405,888.4699,363.55588,888.579C362.67517,888.5275,360.65778,888.0317,360.2444,887.7397L360.24426,887.7397C360.22763,887.727,360.20563,887.71216,360.19217,887.70386L360.19,887.7026C359.60666,887.3416,354.61496,885.9774,353.76926,885.9495L353.75858,885.9495L353.73956,885.94714L353.72873,885.94714L353.67227,885.9514C353.3697,885.99634,353.2923,886.2775,353.2747,886.3589C353.2362,886.53705,353.25546,886.7692,353.2879,886.9842C353.4015,887.7374,353.79694,888.9755,354.25363,889.6761L354.25214,889.6761C354.50162,890.14343,355.14627,891.59564,355.6358,892.942C356.13525,894.31555,356.73474,895.6551,356.93127,895.94995L356.9631,895.9914L356.96274,895.9914C357.23523,896.3619,358.28436,899.4217,358.5297,900.4366L358.5189,900.4366C357.95914,900.5078,356.65564,900.5781,355.0773,900.5781C352.89523,900.5781,349.4153,900.7039,347.3203,900.8298L347.31354,900.83026L343.55118,901.1228C343.40698,901.134,343.28128,901.2251,343.22592,901.3587C343.17056,901.4923,343.1949,901.6455,343.28873,901.7554L346.4658,905.4761L346.46918,905.48C348.22867,907.4849,349.51773,909.32996,349.5951,909.68854L349.59033,909.68854C349.56277,909.8519,349.2783,910.1067,347.38345,910.53723L347.38373,910.53723C342.14133,911.72705,340.47888,912.1044,340.05878,912.5569L340.0589,912.5569C339.99536,912.62537,339.94492,912.704,339.91385,912.79675L339.90567,912.8247C339.86353,912.99194,339.936,913.1344,339.95612,913.1739L339.956,913.1739C340.31342,913.8763,343.7735,916.7461,344.80573,917.2002L344.81125,917.2026C345.46045,917.47595,348.94983,920.31036,349.7096,921.11255L349.69864,921.11255C349.50626,921.2698,349.1378,921.5131,348.6846,921.7264L348.67642,921.7305C348.0435,922.04706,346.71643,922.7642,345.3412,923.5062L345.34094,923.5062L344.36,924.03503L344.3601,924.03503C344.35556,924.03754,344.3421,924.04504,344.33038,924.05237L344.3298,924.05237C342.7485,924.96716,340.67953,926.0833,339.7849,926.49L339.77194,926.49603L338.09964,927.3323C337.9654,927.3995,337.8826,927.5387,337.8875,927.6888C337.89243,927.8389,337.98428,927.97217,338.1228,928.0304L340.21317,928.90826L340.21075,928.9073L340.26764,928.9316L340.26788,928.9316C341.02274,929.2553,340.65524,929.09753,341.50784,929.46173C341.758,929.56866,342.85822,930.03925,343.1228,930.1526C343.67133,930.38763,344.1568,930.5963,344.59863,930.7878L344.5985,930.7878C345.85147,931.3307,347.49683,932.00604,348.2669,932.26294L348.2663,932.26294C349.94247,932.89264,350.0474,933.1731,349.9178,933.51874C349.74295,933.9849,349.10355,934.6842,347.83224,935.88275C343.16266,940.2606,341.81107,941.49695,341.73257,942.1889C341.71683,942.32776,341.74136,942.45416,341.7908,942.56445L341.79108,942.5646C341.83688,942.66644,341.89914,942.7462,341.94818,942.8049L341.952,942.8096C341.97726,942.83875,342.00696,942.8665,342.03125,942.8869C342.48505,943.26605,344.21216,943.5797,345.8863,943.7356L345.8925,943.736L345.89917,943.7365L345.89902,943.7365C350.10815,944.08466,351.31885,944.37427,351.47723,944.6236L351.46652,944.6236C351.37723,944.9365,350.7372,946.051,349.87265,947.26917C349.02808,948.42114,348.26917,949.61163,348.15707,949.9629L348.15707,949.9629C348.1479,949.99146,348.1308,950.0507,348.12967,950.1176L348.11896,950.1176C348.0329,950.3231,347.67093,950.9116,347.1653,951.5617C346.64322,952.2331,346.17038,952.9332,346.0724,953.20966L346.07227,953.20984C346.06183,953.23926,346.0393,953.30707,346.0393,953.38605C346.0393,953.71027,346.3678,953.8013,346.3736,953.8013L346.3738,953.8013C346.62723,953.88275,347.23538,953.9033,347.95227,953.9033C351.04745,953.9033,358.0692,953.46814,358.8602,953.138L358.86008,953.138C358.88925,953.126,358.9484,953.09863,359.0006,953.0556L359.02777,953.0309C359.1327,952.9352,359.68982,952.7671,360.34464,952.7671C360.84323,952.7671,360.98288,952.787,361.03006,952.8162L361.01987,952.8162C361.02515,952.83704,361.0322,952.88007,361.0322,952.95917L361.0322,952.9593C361.03232,953.17865,360.98074,953.5169,360.88562,954.07404L360.8855,954.0746C360.4674,956.54156,359.5124,960.2531,359.03946,961.199L359.0362,961.2055C358.6278,962.0631,357.41888,966.5525,357.4375,967.21643L357.4375,967.2168L357.43726,967.2168C357.43576,967.2361,357.4375,967.448,357.60712,967.57404L357.60648,967.57404C357.71176,967.65405,357.83118,967.66125,357.86966,967.66125C357.87848,967.66125,357.883,967.661,357.88226,967.661C357.89368,967.661,357.9074,967.6606,357.9182,967.66003L357.91736,967.66003C358.55823,967.62787,362.80927,966.1242,363.3408,965.7246L363.3408,965.7246C363.3636,965.70764,363.3969,965.6811,363.43,965.6431L363.42886,965.6431C363.64752,965.44867,365.1589,964.8684,367.29816,964.25104L367.29764,964.25104L367.74896,964.1333L367.48575,968.83246L367.486,968.8301L367.48526,968.84076C367.37427,971.4022,367.3525,973.69604,367.50134,974.17316L367.5006,974.17316C367.50726,974.20404,367.59808,974.4925,367.89386,974.50525L367.9106,974.5057L367.91135,974.5057C367.97202,974.5057,368.02347,974.49365,368.05557,974.4849L368.0553,974.4849C368.39398,974.39374,369.4196,973.7956,370.3829,973.10284L370.38266,973.10284L370.4856,973.03394L370.48572,973.0338L370.83545,972.7993L370.83545,972.7993C370.8356,972.7993,371.1163,972.6112,371.1525,972.587C373.44666,971.0491,374.20605,970.5562,374.54877,970.3988L374.55972,970.3988C374.78592,972.60614,374.93048,985.59155,374.96835,1010.78485L374.96835,1010.78564L375.0938,1051.6292C375.0943,1051.7913,375.1962,1051.9352,375.34854,1051.9901C375.39096,1052.0051,375.43472,1052.0125,375.478,1052.0125C375.5905,1052.0125,375.6998,1051.9631,375.77432,1051.873L378.36615,1048.7375L378.366,1048.7375C379.78326,1047.0286,381.62262,1044.8969,382.45123,1043.9855L382.45764,1043.9781C382.70557,1043.691,383.18607,1043.1307,383.72528,1042.5017L383.7254,1042.5013C384.61908,1041.4587,385.92438,1039.9363,387.1144,1038.5582C387.4311,1038.1917,387.53702,1038.069,387.85,1037.7078L387.85455,1037.7025C389.99106,1035.1472,392.65347,1032.0271,393.78577,1030.7272C394.88324,1029.4672,395.97806,1028.5507,396.27158,1028.4762L396.25522,1028.4762L396.28162,1028.4745L396.29282,1028.4745C396.46848,1028.4945,397.033,1028.949,397.51874,1029.7184C398.01794,1030.5085,398.8229,1031.4825,399.3987,1031.7443L399.3936,1031.7443C399.74432,1031.9622,399.94876,1032.2095,399.9694,1032.2914L399.9683,1032.2914C399.97366,1032.3972,400.02148,1032.4813,400.02502,1032.4884L400.02515,1032.4885C400.51053,1033.4316,411.31152,1045.9943,414.03732,1048.842L414.04327,1048.848C414.64062,1049.4454,414.99152,1049.9934,415.0188,1050.142L415.0179,1050.142C415.01904,1050.1802,415.0237,1050.2169,415.02972,1050.2487L415.02972,1050.249C415.09653,1050.6013,415.45322,1051.0497,415.7758,1051.3322L415.77615,1051.3322L415.7838,1051.3389C415.8358,1051.382,415.9436,1051.4564,416.09344,1051.4564C416.35815,1051.4564,416.48572,1051.2473,416.52814,1051.1635L416.52814,1051.1637C416.98782,1050.2554,417.04938,1042.9949,417.12384,1010.65985L417.12384,1010.66034C417.23267,978.62933,417.32562,971.47955,417.66293,970.229L417.67413,970.229C418.20093,970.47363,419.51486,971.26776,420.8998,972.29767L420.90497,972.30145C422.424,973.3921,423.98947,974.3903,424.4731,974.49194L424.47397,974.492C424.5112,974.4997,424.5491,974.5057,424.5989,974.5057C424.8494,974.5057,424.98993,974.32556,425.0488,974.22424C425.24457,973.8872,425.2959,973.1176,425.2959,972.228C425.2959,970.61346,425.10907,968.1699,424.77103,965.58514L424.77002,965.5786C424.66458,964.86633,424.6564,964.34827,424.68494,964.08734L424.6964,964.08734C425.6576,964.2918,428.81723,965.389,429.18045,965.6532L429.1802,965.6532C429.89078,966.19495,434.2125,967.6601,434.90118,967.66205L434.90323,967.66205C434.9057,967.66205,434.91025,967.6622,434.9164,967.6622C434.96085,967.6622,435.09332,967.6567,435.2073,967.56506L434.9666,967.26544L435.24002,967.5356C435.38055,967.3934,435.37033,967.2051,435.36868,967.16534C435.35712,966.86084,435.12402,966.26117,434.85034,965.7139L434.84167,965.69745C434.49307,965.07764,433.91785,963.36694,433.5418,961.9045C433.16452,960.39557,432.57858,958.3827,432.19174,957.3916L432.19174,957.3916C431.50616,955.5351,431.66205,955.25323,431.9961,955.1299L431.99585,955.1299C432.17422,955.06396,432.45605,955.0251,432.876,955.0251C433.24728,955.0251,433.70624,955.0547,434.26193,955.10657L434.26144,955.10657C435.69833,955.2712,436.91782,955.5033,437.12692,955.6215L437.12567,955.6215L437.1264,955.6221C437.14832,955.6378,437.16617,955.6485,437.183,955.65814L437.183,955.65814C437.82263,956.0258,441.41934,956.33435,443.174,956.33435C443.63687,956.33435,444.0738,956.31555,444.29913,956.2358L444.29922,956.2358C444.3132,956.23083,444.6315,956.13416,444.6315,955.8108C444.6315,955.74493,444.6164,955.6881,444.608,955.6588L444.60773,955.65814C444.50922,955.3219,443.83093,954.19543,443.10876,953.0551L443.1055,953.0502C442.39478,951.9653,441.83557,951.02264,441.71667,950.73865L441.70508,950.73865C441.70334,950.6794,441.68988,950.62994,441.68268,950.6049L441.6826,950.6049C441.58105,950.2512,440.82455,948.936,439.9733,947.62036L439.97015,947.6153C439.14798,946.3443,438.51224,945.2195,438.3785,944.8772L438.36694,944.8772C438.61844,944.6755,439.8281,944.4667,444.49908,943.9439L444.50085,943.94366C446.988,943.6535,449.524,943.1899,450.13568,942.9076L450.14648,942.9024L450.1475,942.90186L450.1474,942.90186C450.3234,942.814,450.55188,942.6972,450.69342,942.515C450.80463,942.3721,450.85886,942.197,450.8338,942.0012L450.83395,942.0012C450.81985,941.89124,450.78122,941.7848,450.73328,941.68884C450.45108,941.12445,449.43442,940.18243,447.392,938.3044L447.39188,938.30426C445.65707,936.711,444.3231,935.29596,443.98376,934.7867L443.9722,934.7867C444.20923,934.6213,444.79562,934.3306,445.5124,934.1107L445.51102,934.1107C446.52695,933.8568,447.58752,933.4248,447.94052,933.1724L447.9404,933.1724C448.16965,933.0087,449.48196,932.48114,450.91397,932.0595L450.91397,932.0595C452.26273,931.68317,453.21326,931.3096,453.47668,930.81964C453.5547,930.6745,453.58478,930.5047,453.53644,930.3306C453.52957,930.30505,453.52084,930.2805,453.51193,930.25824L453.51154,930.25824C453.37115,929.88385,453.0517,929.53595,452.69714,929.44617L452.69714,929.44617C452.65375,929.43506,452.60608,929.42706,452.55637,929.4246L452.54443,929.4246C452.3264,929.38165,451.46866,928.8926,450.44858,928.24036L450.44757,928.24036C449.42862,927.51855,447.7839,926.54834,446.847,926.0795L446.8466,926.0795C444.97806,925.12616,441.87848,922.9359,441.3309,922.3037L441.31934,922.3037C441.62155,921.81445,443.2912,920.3106,444.65598,919.47626L444.65585,919.47626C446.83704,918.152,451.85196,913.83246,452.24612,912.92944L451.90366,912.77997L451.892,912.77997C451.89258,912.7787,451.89322,912.77704,451.89386,912.77576L451.89386,912.77576L452.24612,912.9293C452.26514,912.88586,452.35583,912.6823,452.2357,912.4808C452.2171,912.4493,452.1943,912.4209,452.1694,912.39624L452.1694,912.39624C452.12762,912.35443,452.08148,912.3258,452.0568,912.31104C451.6542,912.0745,449.48813,911.51013,447.13132,911.03845L447.13092,911.03845C444.98047,910.5647,443.21115,910.114,442.72955,909.90186L442.718,909.90186C442.78592,909.4522,443.63165,908.0025,444.86508,906.6569L444.8735,906.6473C445.36884,906.06934,446.54678,904.72314,447.4622,903.6829L447.4637,903.68115L449.13586,901.7581C449.2321,901.6475,449.25702,901.4917,449.1999,901.3564C449.1428,901.2213,449.01382,901.13043,448.86737,901.1223L444.39734,900.8718L444.3992,900.8718C441.96866,900.7041,438.95248,900.5781,437.68393,900.5781C436.9473,900.5781,436.339,900.54584,435.9841,900.5052L435.9725,900.5052C436.22577,899.896,436.8138,898.5661,437.52878,897.0735L437.53018,897.0706C438.49313,895.01935,439.6925,892.45575,440.20404,891.30554L440.2039,891.30554C440.67972,890.3197,440.9731,889.3761,440.89197,888.92975C440.87524,888.837,440.82166,888.64343,440.62714,888.543L440.6269,888.543C440.6079,888.5329,440.5899,888.5259,440.58575,888.5241L440.55884,888.51447C440.51932,888.50195,440.48773,888.4967,440.4632,888.4932L440.46283,888.4932C440.4066,888.485,440.3424,888.4826,440.28668,888.4826C439.07614,888.4826,432.4957,889.6984,431.73636,890.1681L431.73395,890.1695C431.71585,890.1808,431.69684,890.1939,431.67947,890.2074L431.67822,890.2074C431.26456,890.47876,429.6645,890.7667,428.6731,890.7667C428.53247,890.7667,428.42474,890.76044,428.3465,890.752L428.33517,890.752C428.42487,889.2068,429.29636,883.9758,429.5515,883.3452L429.5515,883.3452C429.98242,882.32654,430.47513,879.0578,430.26328,878.3648C430.2474,878.3128,430.1874,878.1242,429.99402,878.04114L429.98975,878.03937C429.96622,878.02966,429.93994,878.02045,429.9076,878.01416L429.90634,878.01416L429.7945,878.0045C429.7686,878.006,429.738,878.01044,429.71548,878.01465L429.71408,878.0151C428.93558,878.16705,422.60565,881.4297,421.44928,882.25555L421.4454,882.25836C421.07324,882.5314,420.7504,882.6893,420.55777,882.7501C420.4729,882.10645,420.3847,880.18933,420.3847,877.928C420.3847,875.273,420.25372,873.1399,419.97192,872.62476L419.97205,872.62476C419.94324,872.57214,419.88916,872.4867,419.79565,872.42444L419.79517,872.4242C419.70267,872.3628,419.60202,872.33484,419.51233,872.3248L419.51096,872.3248C419.48413,872.3219,419.4464,872.3199,419.42023,872.3199C418.92896,872.3199,418.17258,872.75,417.54883,873.2351L417.54178,873.2408C415.48465,874.9201,409.64273,879.8022,408.54855,880.72815L408.53168,880.7432C408.15967,881.09766,407.996,881.2289,407.91724,881.26917C407.87524,881.23065,407.79834,881.1389,407.64838,880.9266C407.39676,880.56726,406.7004,878.86945,406.15475,877.0644L406.15387,877.0619C405.63403,875.3822,405.04608,873.71533,404.82278,873.3836L404.82254,873.3832C404.81836,873.37714,404.81497,873.372,404.8116,873.36725L404.8106,873.36725C404.67935,873.1703,404.19662,871.94135,403.72998,870.54254L403.72986,870.54254C403.36905,869.352,402.8371,868.1753,402.39224,867.86993L402.392,867.8697C402.31952,867.82,402.20715,867.7612,402.06613,867.7612C401.98248,867.7612,401.90158,867.7818,401.84058,867.80493L401.84006,867.80505C401.36865,867.985,400.7503,868.82196,400.30743,869.6338L400.3073,869.6338C399.80807,870.54913,399.3465,871.31213,399.24005,871.4319L399.23978,871.4319C399.22974,871.4424,399.21854,871.4546,399.21503,871.45874L399.21503,871.45874C399.0297,871.6712,398.27496,872.8524,397.5162,874.09015L397.51315,874.09503C396.6725,875.51355,396.3894,875.9094,396.244,875.9728C396.20938,875.95935,396.12558,875.90607,395.93323,875.72504L395.92706,875.71936C395.5524,875.3821,395.3199,874.95825,395.30228,874.8343L395.3018,874.8343C395.3018,874.3258,394.84937,873.8901,394.46225,873.69635L394.42538,873.68024C394.19287,873.593,394.04758,873.3744,394.04758,873.24567C394.04758,873.212,394.04456,873.18054,394.04105,873.1552C393.97714,872.6963,393.26102,871.45197,392.51443,870.3911C391.77164,869.33563,391.20563,868.3347,391.12625,868.0621L391.12122,868.0621C391.12122,867.7746,391.0105,867.4614,390.75424,867.2759L390.75433,867.2759C390.6318,867.18695,390.48383,867.13434,390.3189,867.13434 Z"/> </g> <g style="fill:rgb(244,67,54); fill-opacity:1.0; stroke-linejoin: miter"> <path d="M396.46634,891.4042C392.3501,891.4042,387.93365,891.92664,386.12497,892.8894L386.12448,892.8894C385.43753,893.2321,384.77603,893.47144,384.59158,893.47144L384.57712,893.47144C383.91333,893.4844,380.8886,894.80835,380.4373,895.25104C380.31137,895.35657,379.55624,895.77637,378.65067,896.2291C376.40253,897.3533,368.73334,905.02264,367.60947,907.27026C367.15393,908.1815,366.73447,908.9363,366.6298,909.05884L366.62955,909.05884C366.61053,909.07855,366.59518,909.0977,366.58536,909.11053L366.585,909.1112C366.39417,909.36017,365.8538,910.50073,365.34314,911.67896L365.34314,911.67914C365.27432,911.838,365.0701,912.3077,364.99878,912.47156C364.77393,912.9883,364.8863,912.729,364.66852,913.23175L364.6684,913.23175C364.3632,913.93604,364.10114,914.5488,363.9968,914.8358L363.99606,914.8358C362.78976,917.64355,362.34354,928.0545,363.23062,931.98285C363.7828,934.5284,365.55322,939.00134,366.75107,940.8837L366.7512,940.8837C367.2454,941.6668,367.9059,942.8642,368.23264,943.55835L368.23526,943.5637C369.3677,945.8722,376.29498,952.3628,379.14624,953.8521L379.14636,953.8521C380.50934,954.57367,382.0304,955.24554,382.50067,955.2742L382.50467,955.2743C382.51376,955.27484,382.5334,955.2754,382.54318,955.2754C382.8021,955.2754,382.92316,955.40686,382.93106,955.4305L382.93094,955.4305C382.9687,955.5441,383.04416,955.6219,383.0886,955.6622L383.0887,955.6622C383.82092,956.3278,389.62372,957.7837,391.4057,957.7837C392.0939,957.7837,392.61652,957.9304,392.715,958.02295L392.71136,958.02295C392.76834,958.11395,392.8451,958.1687,392.89594,958.2002C393.31113,958.45746,394.65778,958.61975,395.96243,958.61975C397.26773,958.61975,398.61392,958.45746,399.02908,958.2002C399.07803,958.17,399.1516,958.1177,399.20825,958.0313L399.20322,958.0313C399.31848,957.93134,399.92035,957.7837,400.7283,957.7837C403.14902,957.7837,408.30878,956.2965,411.1888,954.7725L411.1887,954.7725C417.56464,951.4792,424.20392,944.64355,426.37732,939.14795L426.37717,939.14795C426.80746,938.0719,427.22943,937.13837,427.379,936.9777L427.379,936.9777L427.40732,936.94604C428.34384,935.7756,429.20605,929.68164,429.24744,925.21313L429.24744,925.2096C429.24744,919.58685,428.66153,915.7613,427.20703,912.59424L427.20715,912.59424C426.68704,911.434,426.28723,910.4431,426.2399,910.2015L426.23752,910.2015C426.23752,910.1462,426.22733,910.0955,426.21942,910.06323L426.21942,910.0629C426.12555,909.6817,425.4371,908.55194,424.70993,907.48L424.7097,907.48L424.70667,907.4755L424.7049,907.4727C424.00488,906.4412,423.44968,905.57446,423.31985,905.31055L423.30865,905.31055C423.2962,905.20386,423.24033,905.11945,423.23004,905.10596L423.22952,905.10596C423.0414,904.82666,421.6527,903.367,420.0631,901.7778L420.0617,901.77637C416.23505,897.99176,411.88336,894.98303,408.2975,893.74414C406.84125,893.23035,405.57144,892.7486,405.37277,892.6163L405.15964,892.9361L405.35553,892.6054C405.35,892.60223,405.33905,892.5956,405.3218,892.58655L405.3218,892.58655C405.00766,892.42303,403.62918,892.08826,402.346,891.8476L402.34412,891.8473C400.68243,891.5438,398.5963,891.4042,396.46634,891.4042 Z"/> </g> <g style="fill:rgb(0,0,0); fill-opacity:1.0; stroke-linejoin: miter"> <path d="M133.21814,699.9138C133.0059,699.9138,132.83385,700.086,132.83385,700.29816L132.83385,714.0939L132.83385,727.8896C132.83385,727.99146,132.8743,728.0894,132.9464,728.1613C133.01848,728.23346,133.11617,728.2739,133.21814,728.2739L263.4408,728.27374L393.66333,728.2739C393.76523,728.2739,393.86298,728.23346,393.93506,728.1613C394.00705,728.0894,394.04755,727.99146,394.04755,727.8896L394.04755,714.0939L394.04755,700.29816C394.04755,700.086,393.87558,699.9138,393.66333,699.9138 Z"/> </g> <g style="fill:rgb(0,0,0); fill-opacity:1.0; stroke-linejoin: miter"> <path d="M133.21812,775.581C133.00587,775.581,132.83385,775.7531,132.83385,775.96533L132.83385,789.76117L132.83385,803.5595C132.83385,803.6614,132.87428,803.75934,132.94637,803.8313C133.01846,803.9032,133.11615,803.9437,133.21812,803.9437L443.41132,803.94104C443.62357,803.94104,443.7957,803.769,443.7957,803.5567L443.7957,789.7611L443.7957,775.9653C443.7957,775.75305,443.62357,775.58093,443.41132,775.58093 Z"/> </g> <g style="fill:rgb(0,0,0); fill-opacity:1.0; stroke-linejoin: miter"> <path d="M133.21811,587.1775C133.08179,587.1775,132.97133,587.28796,132.97133,587.4242L132.97131,601.30347L132.97131,615.2246C132.97131,615.29016,132.99734,615.35297,133.04366,615.3993C133.08989,615.44556,133.1528,615.4715,133.21835,615.4715L266.78537,615.3461L266.78525,615.3461L400.3524,615.26245C400.48865,615.2623,400.599,615.152,400.599,615.01575L400.599,601.22003L400.59903,587.42426C400.59903,587.288,400.48856,587.17755,400.35233,587.17755 Z"/> </g> <g style="fill:rgb(0,0,0); fill-opacity:1.0; stroke-linejoin: miter"> <path d="M133.21822,624.80206C133.1528,624.80206,133.08989,624.82794,133.04366,624.87427C132.99734,624.9205,132.97131,624.9833,132.97131,625.0488L132.97137,638.8445L132.97139,652.643C132.97139,652.70856,132.99731,652.77106,133.0436,652.8174C133.0899,652.86365,133.15268,652.8897,133.21817,652.8897L418.74634,652.8871C418.81204,652.8871,418.87506,652.8608,418.9214,652.8142C418.96765,652.7676,418.9936,652.7044,418.9932,652.63873L418.9095,638.92664L418.9095,638.926L418.78406,625.2558C418.78278,625.1204,418.67282,625.01135,418.53757,625.0112L275.89893,624.8856L275.89883,624.8856L133.21822,624.80206 Z"/> </g> <g style="fill:rgb(0,0,0); fill-opacity:1.0; stroke-linejoin: miter"> <path d="M133.2183,662.4268C133.15282,662.4268,133.08997,662.45264,133.04373,662.49896C132.99745,662.54517,132.97139,662.608,132.97139,662.6735L132.97136,676.46906L132.97136,690.2675C132.97136,690.33307,132.99728,690.3957,133.04356,690.442C133.08987,690.48834,133.15266,690.51434,133.21814,690.51434L336.3905,690.5116C336.45618,690.5116,336.5192,690.4854,336.5655,690.4388C336.61182,690.3921,336.63766,690.3289,336.63727,690.26324L336.55368,676.55133L336.55368,676.5506L336.4283,662.8804C336.42706,662.745,336.31714,662.6359,336.18185,662.6358L234.72107,662.51044L234.72089,662.51044L133.2183,662.4268 Z"/> </g> <g style="fill:rgb(0,0,0); fill-opacity:1.0; stroke-linejoin: miter"> <path d="M133.21814,737.67596C133.08183,737.67596,132.97136,737.7864,132.97136,737.9227L132.97134,751.9273L132.97134,765.93475C132.97134,766.0003,132.99727,766.0629,133.04356,766.10925C133.08986,766.1556,133.15263,766.1816,133.21812,766.1816L409.13123,766.17883C409.26758,766.17883,409.37808,766.06836,409.37808,765.9321L409.37808,751.9273L409.37814,737.9227C409.37814,737.7864,409.26767,737.67596,409.1313,737.67596 Z"/> </g> <g style="fill:rgb(0,0,0); fill-opacity:1.0; stroke-linejoin: miter"> <path d="M282.88,813.343L133.21812,813.3432C133.0818,813.3432,132.97133,813.4537,132.97133,813.5899L132.97133,827.3856L132.97139,841.18146C132.97139,841.247,132.99744,841.3098,133.04372,841.3561C133.08995,841.4024,133.15286,841.42816,133.21829,841.42816L282.7966,841.3446L432.3331,841.219C432.46848,841.21875,432.57843,841.1097,432.5797,840.9744L432.70514,827.2624L432.70514,827.2618L432.7888,813.59143C432.78915,813.5257,432.76324,813.4625,432.71695,813.416C432.67065,813.3693,432.60764,813.34314,432.54196,813.34314L282.88,813.343 Z"/> </g> <g style="fill:rgb(0,0,0); fill-opacity:1.0; stroke-linejoin: miter"> <path d="M293.41498,539.1016C181.10223,539.1016,88.882545,539.22424,87.51001,539.3926L87.509,539.3926C87.51668,539.39154,87.52045,539.3907,87.52133,539.39014L87.51322,539.39014C87.48377,539.39355,87.38237,539.41644,87.32444,539.4976L87.29412,539.5545C87.283485,539.58264,87.27971,539.60376,87.27707,539.62646C87.10905,541.0558,86.98587,646.9704,86.98583,776.0489L86.98584,1012.167C86.98584,1012.2324,87.01176,1012.295,87.05806,1012.3414C87.104355,1012.38763,87.16719,1012.4136,87.23262,1012.4136L219.04373,1012.411C291.04147,1012.411,350.13568,1012.3288,351.0751,1012.24457L351.07825,1012.2443C351.09662,1012.2425,351.11475,1012.2395,351.13913,1012.2317L351.2353,1012.1741C351.29514,1012.1162,351.312,1012.0354,351.3139,1012.02106L351.3135,1012.02106C351.39847,1011.579,351.4334,1005.7419,351.3525,998.8258L351.2271,985.8246C351.22583,985.6891,351.11588,985.58014,350.9805,985.57996L230.70752,985.49646L230.70761,985.49646L110.67808,985.3712L110.43043,966.17523L110.43043,966.1756C110.30499,955.4734,110.137695,861.2504,110.09595,756.69293C110.05534,613.6741,110.17527,569.17554,110.51515,566.3938L110.50686,566.3938C113.11435,566.0572,155.01407,565.93506,288.9622,565.93506L293.41498,565.93506L475.7725,565.9324L475.77246,775.75616L475.77222,985.5812L458.58517,985.6635L458.58456,985.6635L441.11008,985.78906C440.97446,985.79,440.86514,985.9002,440.86514,986.0359L440.86514,998.99536L440.86514,1011.9549C440.86514,1012.02057,440.89105,1012.08325,440.93735,1012.1295C440.98364,1012.17554,441.04645,1012.2017,441.11188,1012.2017L469.95724,1012.2015L498.8028,1012.2017C498.93903,1012.2017,499.04947,1012.09155,499.04947,1011.95514L499.17517,775.6311L499.25894,539.3485C499.25894,539.283,499.23288,539.2202,499.1865,539.1739C499.14023,539.12756,499.07745,539.10156,499.01202,539.10156 Z"/> </g> <g style="fill:rgb(0,0,0); fill-opacity:1.0; stroke-linejoin: miter"> <path d="M536.42474,580.6512L536.41254,580.6518L536.41174,580.6518L536.3949,580.65436L536.39465,580.65436C534.48773,580.9127,533.9209,581.0131,533.06616,581.342C532.53503,581.5414,531.2885,582.2309,530.3428,582.8506L530.34186,582.8512L528.64636,583.99225L528.6057,584.0688L528.67096,608.7168L528.67096,608.71716L528.76874,633.3675L528.8608,633.4589L543.85834,633.45685L543.9503,633.36523L544.0482,608.6519L544.0482,608.6519L544.11334,583.9712L544.0714,583.8937L542.1152,582.62195L542.11505,582.6218C541.00085,581.9009,539.3932,581.1778,538.46594,580.9789L538.4662,580.9789C537.5864,580.7835,536.6635,580.6512,536.42474,580.6512 Z"/> </g> <g style="fill:rgb(0,0,0); fill-opacity:1.0; stroke-linejoin: miter"> <path d="M531.0649,635.44885C522.95953,635.44885,516.85754,635.5079,516.52075,635.61755L516.52075,635.61755C516.51996,635.61755,516.4751,635.6293,516.45416,635.671L516.4493,635.6831C516.4472,635.6893,516.4455,635.6952,516.4441,635.70483L516.444,635.70544C516.3463,636.41345,516.3144,695.9434,516.347,768.5058L516.3796,901.0381L516.4712,901.13L536.2937,901.22797L536.2937,901.22797L556.0839,901.2935L556.17633,901.2013L556.1764,817.9978C556.17664,772.1672,556.20905,712.5167,556.2741,685.2047L556.2741,685.2045L556.3395,635.6471L556.24786,635.55493L536.45764,635.4573L536.4572,635.4573C534.44366,635.4515,532.9301,635.44867,531.0649,635.44885 Z"/> </g> <g style="fill:rgb(0,0,0); fill-opacity:1.0; stroke-linejoin: miter"> <path d="M568.79956,635.7182L568.70776,635.81006L568.70776,639.46185C568.7078,640.0197,568.7022,642.4244,568.6938,646.0688C568.6728,655.07007,568.633,671.9347,568.61005,690.4209L568.5447,737.6959L568.63446,737.7877L572.48157,737.8857L572.48157,737.8857L576.2963,737.9835L576.3908,737.8917L576.39056,686.8345L576.39075,635.81006L576.29834,635.71796 Z"/> </g> <g style="fill:rgb(0,0,0); fill-opacity:1.0; stroke-linejoin: miter"> <path d="M558.0406,635.7503L557.9811,635.80994L557.98114,640.86365L557.98114,645.9191L558.04065,645.97876L566.5176,645.97675L566.5771,645.9171L566.5771,640.8638L566.5769,635.80994L566.5175,635.75055 Z"/> </g> <g style="fill:rgb(0,0,0); fill-opacity:1.0; stroke-linejoin: miter"> <path d="M567.3651,717.2593C567.34937,717.2593,567.33777,717.2641,567.33057,717.26746L567.3302,717.26746C566.8964,717.4649,559.093,726.3385,558.9631,726.7808L558.9631,726.78094C558.96173,726.78613,558.95917,726.7972,558.95917,726.8061C558.95917,726.8143,558.9608,726.8235,558.96173,726.8277L558.96204,726.8285C559.07385,727.2937,566.61414,736.11475,567.1701,736.47455L567.1725,736.4759C567.1803,736.4807,567.19293,736.4857,567.20844,736.4857C567.2452,736.4857,567.2663,736.4582,567.2734,736.4474L567.27313,736.4474C567.4394,736.1944,567.5551,732.4067,567.5551,726.96954C567.555,721.8154,567.4945,717.5605,567.4274,717.312L567.4277,717.312C567.4286,717.312,567.4146,717.2593,567.3651,717.2593 Z"/> </g> <g style="fill:rgb(0,0,0); fill-opacity:1.0; stroke-linejoin: miter"> <path d="M516.27594,902.6964L516.1436,902.8561L516.3392,903.8994L516.3391,903.8994C516.50555,904.9063,519.3714,926.30084,520.60895,935.7782C520.8016,937.29553,521.1192,939.6788,521.42456,941.97064L521.4243,941.97064L521.75,944.41846C521.986,946.1975,522.2016,947.8318,522.332,948.8213C522.4495,949.7124,522.55927,950.5446,522.68207,951.46985L522.68207,951.46985C522.8778,952.94653,523.1291,954.83014,523.5433,957.9161L523.543,957.9161C523.64966,958.74255,523.8613,960.38043,523.941,960.9956L523.9409,960.9956L524.1693,962.76483C524.26483,963.5058,524.32166,963.9565,524.32477,964.0005L524.32465,964.0005C524.32794,964.097,524.422,964.1305,524.45105,964.1362L524.4684,964.1362C524.96783,964.20123,530.291,964.2604,536.6649,964.26044L536.6855,964.26044L548.9116,964.26044L549.0434,964.1543L549.2062,963.4041C549.37103,962.6467,556.2114,903.98334,556.219,903.22534L556.219,903.22394L556.219,903.22296C556.219,903.1419,556.1633,903.09283,556.13116,903.07153L556.1311,903.07153C555.6928,902.7783,551.01404,902.69684,536.1965,902.6964 Z"/> </g> <g style="fill:rgb(0,0,0); fill-opacity:1.0; stroke-linejoin: miter"> <path d="M536.39185,965.6207C531.38214,965.62085,529.5257,965.68835,529.264,966.0358L529.2639,966.0362C529.23334,966.077,529.21484,966.1256,529.21484,966.17944C529.21484,966.1801,529.2151,966.18964,529.2151,966.18964C529.22864,966.4896,530.2399,971.04956,531.468,976.3822C532.7069,981.7613,534.49963,989.68164,535.41235,993.98505L535.4124,993.9861C536.3318,998.1708,537.10425,1001.68146,537.20776,1001.9227L537.20776,1001.9227C537.20905,1001.9257,537.2195,1001.9527,537.24207,1001.9751L537.24243,1001.97577C537.25793,1001.99115,537.3003,1002.02997,537.3652,1002.02997C537.4442,1002.02997,537.4911,1001.9738,537.50977,1001.9454C537.6953,1001.66907,538.06976,999.32654,540.29474,985.5626L540.56805,983.8722L540.56805,983.8722L540.5762,983.8211L540.5762,983.8211C542.00464,974.893,543.266,967.2276,543.3703,966.6652L543.37024,966.6652L543.5659,965.7849L543.4344,965.62085 Z"/> </g> <g style="fill:rgb(0,0,0); fill-opacity:1.0; stroke-linejoin: miter"> <path d="M159.68182,926.7351L236.05597,926.7356L312.4301,926.7361Q312.4301,929.5881,312.4301,932.44006Q236.05597,932.44055,159.68182,932.4411Q159.68182,929.58813,159.68182,926.7351"/> </g> </g> </svg>