<?xml version="1.0" encoding="UTF-8"?>
<!DOCTYPE svg PUBLIC "-//W3C//DTD SVG 1.1//EN" "http://www.w3.org/Graphics/SVG/1.1/DTD/svg11.dtd">
<!-- Creator: CorelDRAW 2020 (64-Bit) -->
<svg xmlns="http://www.w3.org/2000/svg" xml:space="preserve" width="41.6667in" height="31.25in" version="1.1" style="shape-rendering:geometricPrecision; text-rendering:geometricPrecision; image-rendering:optimizeQuality; fill-rule:evenodd; clip-rule:evenodd"
viewBox="0 0 41666.66 31249.99"
 xmlns:xlink="http://www.w3.org/1999/xlink"
 xmlns:xodm="http://www.corel.com/coreldraw/odm/2003">
 <defs>
  <style type="text/css">
   <![CDATA[
    .fil1 {fill:#4D4D4D;fill-rule:nonzero}
    .fil0 {fill:#B3B3B3;fill-rule:nonzero}
   ]]>
  </style>
 </defs>
 <g id="Handshake_x0020_Icon">
  <metadata id="CorelCorpID_0Corel-Layer"/>
  <g id="_2212142112128">
   <g>
    <path class="fil0" d="M8939.57 17014.51l2886.04 -7160.32c0,0 1612.95,-108.35 3300.06,-811.27 3620.7,-1508.56 2805.24,-1510.94 3620.7,-1508.56 1201.41,3.45 4365.06,2099.04 4365.06,2099.04l6875.01 8587.01c0,0 970.08,1198.25 -297.32,2071.68 -1487.01,1024.8 -4075.12,-1492.03 -4075.12,-1492.03 0,0 2727.59,1989.54 1342.34,3131.28 -1454.78,1198.96 -4041.77,-1837.81 -4041.77,-1837.81 0,0 2215.35,1998.45 1170.83,2935.8 -1107.29,993.61 -3645.19,-1473.7 -3645.19,-1473.7 0,0 2305.69,1912.13 456.78,2977.42 -1331.39,766.94 -11957.43,-7518.53 -11957.43,-7518.53z"/>
    <g>
     <path class="fil1" d="M14000.95 11489.22l1476.18 -885.76c0,0 841.99,-1072.91 1223.19,-1307.54 1107.88,-681.88 3458.64,-1012.23 4892.67,-1771.44 850.02,-450.05 2841.28,539.39 3753.8,843.56 3036.89,1012.29 3917.34,1315.89 3917.34,1315.89l3674.8 6486.97c0,0 -175.78,773.58 -1097.28,1399.18 -994.93,675.33 -1618.41,731.88 -1981.81,625.42 -2513.56,-736.25 -8013.77,-6748.49 -8013.77,-6748.49 0,0 -1108.3,-73.31 -1476.24,-42.15 -374.97,31.73 -1128.45,151.55 -1476.24,295.22 -513.98,212.35 -1392.27,928.76 -1897.99,1159.94 -493.11,225.31 -1631.48,428.6 -2151.1,274.12 -1560.59,-463.98 -843.56,-1644.94 -843.56,-1644.94z"/>
     <path class="fil1" d="M13748.37 17788.18c329.43,-329.43 329.43,-863.54 0,-1192.97l-298.2 -298.23c-329.43,-329.43 -863.6,-329.43 -1193,0l-1968.47 1968.38c-329.37,329.43 -329.37,863.54 0.06,1192.97l298.26 298.24c329.43,329.52 863.54,329.4 1192.94,0l1968.41 -1968.38z"/>
     <path class="fil1" d="M15941.58 19222.22c329.46,-329.4 329.55,-863.42 0,-1192.97l-298.2 -298.2c-329.43,-329.43 -863.54,-329.43 -1192.97,0l-1968.38 1968.35c-329.43,329.43 -329.43,863.57 0,1192.97l298.23 298.24c329.49,329.55 863.54,329.43 1192.97,0l1968.35 -1968.38z"/>
     <path class="fil1" d="M18050.54 20824.98c329.43,-329.46 329.49,-863.45 0,-1193l-298.24 -298.2c-329.4,-329.46 -863.57,-329.46 -1193.03,0l-1968.35 1968.35c-329.43,329.43 -329.43,863.54 0,1193l298.2 298.21c329.55,329.55 863.59,329.43 1193.03,0l1968.38 -1968.35z"/>
     <path class="fil1" d="M19815.24 22434.54c286.64,-286.55 284.69,-753.13 -4.28,-1042.09l-261.55 -261.52c-288.97,-288.97 -755.55,-291 -1042.19,-4.37l-1712.08 1712.14c-286.61,286.61 -284.72,753.22 4.25,1042.18l261.58 261.52c289,289.06 755.55,290.89 1042.12,4.37l1712.14 -1712.23z"/>
    </g>
   </g>
   <polygon class="fil1" points="11610.31,8912.65 7229.76,7152.46 3687.48,15968.05 8068.04,17728.18 "/>
   <polygon class="fil0" points="29475.22,8927.41 33452.11,6666.81 37979.17,14683.91 34002.28,16944.48 "/>
  </g>
 </g>
</svg>
