<?xml version="1.0" encoding="UTF-8"?>
<svg viewBox="0 0 640 480" xmlns="http://www.w3.org/2000/svg">
 <g fill-rule="evenodd" stroke="#161616" stroke-linejoin="round" stroke-width="6">
  <g fill="#494949">
   <path d="m181.08 237.76c-8.3633 0.30789-17.744 3.1107-22.749 9.1133-7.2792 15.51 10.404 8.3487 12.484 19.086 2.0798 10.738-10.403 11.332-10.403 11.332h-53.786l0.068779 53.339s0.5938 12.483 11.332 10.403c8.7244-1.6898 5.6304-13.689 12.484-14.22 1.5815-0.12262 3.6948 0.37183 6.6029 1.7367 6.0026 5.0045 8.8054 14.386 9.1133 22.749 0.11365 3.0873-0.15588 5.9909-0.6878 8.5287-0.013641 0.11261-0.037018 0.23117-0.051575 0.3439-0.93207 7.216-3.7206 14.536-8.7866 18.76-15.51 7.2792-8.3487-10.404-19.086-12.484-7.8234-1.5153-10.24 4.6651-10.988 8.1504v56.623l53.975-0.42987s12.483-0.59381 10.403-11.332c-2.0798-10.738-19.746-3.5764-12.466-19.086 5.0045-6.0027 14.368-8.8054 22.732-9.1133 3.0874-0.11368 5.991 0.15588 8.5287 0.68778 0.11262 0.013672 0.2312 0.037048 0.3439 0.051605 7.216 0.93204 14.553 3.7206 18.777 8.7866 7.2792 15.51-10.404 8.3487-12.484 19.086-2.0798 10.738 10.403 11.332 10.403 11.332l53.476 0.0172v-56.176c0.76285-3.4952 3.1929-9.6052 10.97-8.0988 10.738 2.0798 3.5764 19.763 19.086 12.484 5.066-4.2236 7.8546-11.561 8.7866-18.777 0.014587-0.1127 0.037964-0.21408 0.051605-0.32669 0.53189-2.5378 0.80148-5.4414 0.6878-8.5287-0.30789-8.3633-3.1107-17.744-9.1133-22.749-15.51-7.2793-8.3487 10.404-19.086 12.484-10.738 2.0798-11.332-10.403-11.332-10.403l-0.0516-53.837h-56.21c-3.5246-0.8154-9.3344-3.297-7.8581-10.919 2.0798-10.738 19.746-3.5764 12.466-19.086-4.2236-5.066-11.544-7.8546-18.76-8.7866-0.1127-0.014557-0.23128-0.037933-0.3439-0.051575-2.5377-0.53192-5.4413-0.80145-8.5287-0.6878z"/>
   <path d="m333.81 238.27c-8.3633 0.30789-17.744 3.1107-22.749 9.1133-7.2792 15.51 10.404 8.3487 12.484 19.086 2.0798 10.738-10.403 11.332-10.403 11.332h-53.786l0.068787 53.339s0.59381 12.483 11.332 10.403c8.7244-1.6898 5.6305-13.689 12.484-14.22 1.5815-0.12262 3.6947 0.37183 6.6029 1.7367 6.0026 5.0045 8.8054 14.386 9.1133 22.749 0.11365 3.0873-0.15588 5.9909-0.6878 8.5287-0.013641 0.11261-0.037018 0.23117-0.051575 0.3439-0.93207 7.216-3.7206 14.536-8.7866 18.76-15.51 7.2792-8.3487-10.404-19.086-12.484-7.8234-1.5153-10.24 4.6651-10.988 8.1504v56.623l53.975-0.42987s12.483-0.59381 10.403-11.332c-2.0798-10.738-19.746-3.5764-12.466-19.086 5.0045-6.0027 14.368-8.8054 22.732-9.1133 3.0874-0.11368 5.991 0.15588 8.5287 0.68778 0.11264 0.013672 0.2312 0.037048 0.3439 0.051605 7.2161 0.93204 14.553 3.7206 18.777 8.7866 7.2793 15.51-10.404 8.3487-12.484 19.086-2.0798 10.738 10.403 11.332 10.403 11.332l53.476 0.0172v-56.176c0.76285-3.4952 3.1929-9.6052 10.97-8.0988 10.738 2.0798 3.5764 19.763 19.086 12.484 5.066-4.2236 7.8546-11.561 8.7866-18.777 0.014587-0.1127 0.037964-0.21408 0.051605-0.32669 0.53189-2.5378 0.80148-5.4414 0.6878-8.5287-0.30789-8.3633-3.1107-17.744-9.1133-22.749-15.51-7.2793-8.3487 10.404-19.086 12.484-10.738 2.0798-11.332-10.403-11.332-10.403l-0.0516-53.837h-56.21c-3.5246-0.8154-9.3344-3.297-7.8581-10.919 2.0798-10.738 19.746-3.5764 12.466-19.086-4.2236-5.066-11.544-7.8546-18.76-8.7866-0.1127-0.014557-0.23126-0.037933-0.3439-0.051575-2.5377-0.53192-5.4413-0.80145-8.5287-0.6878z"/>
   <path d="m181.09 84.558c-8.3633 0.30789-17.744 3.1107-22.749 9.1133-7.2792 15.51 10.404 8.3487 12.484 19.086 2.0798 10.738-10.403 11.332-10.403 11.332h-53.786l0.068787 53.339s0.5938 12.483 11.332 10.403c8.7244-1.6898 5.6305-13.689 12.484-14.22 1.5815-0.12262 3.6948 0.37183 6.6029 1.7367 6.0026 5.0045 8.8054 14.386 9.1133 22.749 0.11365 3.0873-0.15588 5.9909-0.6878 8.5287-0.013641 0.11261-0.037018 0.23117-0.051575 0.3439-0.93207 7.216-3.7206 14.536-8.7866 18.76-15.51 7.2792-8.3487-10.404-19.086-12.484-7.8234-1.5153-10.24 4.6651-10.988 8.1504v56.623l53.975-0.42987s12.483-0.59381 10.403-11.332c-2.0798-10.738-19.746-3.5764-12.466-19.086 5.0045-6.0027 14.368-8.8054 22.732-9.1133 3.0874-0.11368 5.991 0.15588 8.5287 0.68778 0.11264 0.013672 0.2312 0.037048 0.3439 0.051605 7.2161 0.93204 14.553 3.7206 18.777 8.7866 7.2793 15.51-10.404 8.3487-12.484 19.086-2.0798 10.738 10.403 11.332 10.403 11.332l53.476 0.0172v-56.176c0.76285-3.4952 3.1929-9.6052 10.97-8.0988 10.738 2.0798 3.5764 19.763 19.086 12.484 5.066-4.2236 7.8546-11.561 8.7866-18.777 0.014587-0.1127 0.037964-0.21408 0.051605-0.32669 0.53189-2.5378 0.80148-5.4414 0.6878-8.5287-0.30789-8.3633-3.1107-17.744-9.1133-22.749-15.51-7.2793-8.3487 10.404-19.086 12.484-10.738 2.0798-11.332-10.403-11.332-10.403l-0.0516-53.837h-56.21c-3.5246-0.8154-9.3344-3.297-7.8581-10.919 2.0798-10.738 19.746-3.5764 12.466-19.086-4.2236-5.066-11.544-7.8546-18.76-8.7866-0.1127-0.014557-0.23126-0.037933-0.3439-0.051575-2.5377-0.53192-5.4413-0.80145-8.5287-0.6878z"/>
  </g>
  <path transform="rotate(13.885 430.28 145.28)" d="m408.09 48.556c-8.3633 0.30789-17.744 3.1107-22.749 9.1133-7.2792 15.51 10.404 8.3487 12.484 19.086 2.0798 10.738-10.403 11.332-10.403 11.332h-53.786l0.068787 53.339s0.59378 12.483 11.332 10.403c8.7244-1.6898 5.6305-13.689 12.484-14.22 1.5815-0.12262 3.6948 0.37183 6.6029 1.7367 6.0026 5.0045 8.8054 14.386 9.1133 22.749 0.11365 3.0873-0.15588 5.9909-0.6878 8.5287-0.013641 0.11261-0.037018 0.23117-0.051575 0.3439-0.93207 7.216-3.7206 14.536-8.7866 18.76-15.51 7.2792-8.3487-10.404-19.086-12.484-7.8234-1.5153-10.24 4.6651-10.988 8.1504v56.623l53.975-0.42987s12.483-0.59381 10.403-11.332c-2.0798-10.738-19.746-3.5764-12.466-19.086 5.0045-6.0027 14.368-8.8054 22.732-9.1133 3.0873-0.11368 5.991 0.15588 8.5287 0.68778 0.11261 0.013672 0.2312 0.037048 0.34387 0.051605 7.2161 0.93204 14.553 3.7206 18.777 8.7866 7.2793 15.51-10.404 8.3487-12.484 19.086-2.0798 10.738 10.403 11.332 10.403 11.332l53.476 0.0172v-56.176c0.76288-3.4952 3.1929-9.6052 10.97-8.0988 10.738 2.0798 3.5764 19.763 19.086 12.484 5.066-4.2236 7.8546-11.561 8.7866-18.777 0.014587-0.1127 0.037964-0.21408 0.051636-0.32669 0.53186-2.5378 0.80145-5.4414 0.6878-8.5287-0.30792-8.3633-3.1107-17.744-9.1133-22.749-15.51-7.2793-8.3487 10.404-19.086 12.484-10.738 2.0798-11.332-10.403-11.332-10.403l-0.0516-53.837h-56.21c-3.5246-0.8154-9.3344-3.297-7.8581-10.919 2.0798-10.738 19.746-3.5764 12.466-19.086-4.2236-5.066-11.544-7.8546-18.76-8.7866-0.11267-0.014557-0.23126-0.037933-0.34387-0.051575-2.5377-0.53192-5.4414-0.80145-8.5287-0.6878z" fill="#c5dc00"/>
 </g>
</svg>
